<?xml version="1.0" standalone="no"?>
<!DOCTYPE svg PUBLIC "-//W3C//DTD SVG 20010904//EN"
 "http://www.w3.org/TR/2001/REC-SVG-20010904/DTD/svg10.dtd">
<svg version="1.0" xmlns="http://www.w3.org/2000/svg"
 width="422.000000pt" height="405.000000pt" viewBox="0 0 422.000000 405.000000"
 preserveAspectRatio="xMidYMid meet">
<metadata>
Created by potrace 1.16, written by Peter Selinger 2001-2019
</metadata>
<g transform="translate(0.000000,405.000000) scale(0.100000,-0.100000)"
fill="#000000" stroke="none">
<path d="M2234 3830 c-147 -21 -313 -119 -469 -275 -138 -138 -177 -250 -178
-517 -1 -156 -1 -158 -23 -158 -42 0 -49 -23 -47 -164 2 -138 21 -264 48 -315
13 -25 22 -31 49 -31 38 0 35 7 52 -125 8 -59 41 -152 77 -214 l26 -45 -26
-44 c-24 -40 -25 -50 -20 -125 4 -45 8 -89 10 -97 17 -69 33 -106 65 -157 21
-32 58 -89 83 -128 61 -98 151 -217 225 -301 45 -51 74 -74 104 -84 l41 -13
45 44 c25 24 88 104 142 177 53 73 121 166 150 205 30 40 64 93 77 118 24 46
57 166 69 248 5 35 19 58 66 111 73 83 107 146 145 273 28 90 32 98 60 105 17
5 37 21 47 38 23 40 48 184 55 326 7 127 -3 172 -39 181 -19 5 -20 12 -16 129
13 332 -50 467 -312 673 -177 139 -334 190 -506 165z m-101 -433 c15 0 27 -4
27 -8 0 -5 9 -9 20 -9 21 0 69 -26 82 -45 5 -7 13 -6 26 1 10 7 53 15 96 19
42 4 83 13 90 20 17 17 106 11 146 -10 16 -8 48 -33 70 -55 22 -22 45 -40 49
-40 5 0 11 -7 15 -15 3 -8 12 -15 21 -15 8 0 15 -7 15 -16 0 -9 9 -18 20 -21
18 -5 21 -10 19 -29 0 -3 7 -11 16 -18 17 -12 18 -24 9 -98 -3 -27 -10 -48
-16 -48 -5 0 -6 -4 -3 -10 11 -17 -6 -11 -35 14 -21 17 -26 26 -17 35 8 8 2
14 -21 22 -18 6 -32 15 -32 20 0 5 -10 5 -22 0 -13 -4 -29 -6 -35 -4 -7 3 -13
0 -13 -6 0 -6 -9 -11 -21 -11 -11 0 -18 4 -14 10 6 10 -38 7 -76 -5 -17 -6
-19 -9 -8 -16 10 -6 8 -9 -8 -9 -14 0 -23 -6 -23 -15 0 -8 -5 -15 -11 -15 -7
0 -9 -10 -5 -25 5 -21 1 -27 -36 -44 -24 -11 -50 -28 -59 -39 -15 -17 -14 -20
8 -40 19 -17 24 -30 21 -59 -2 -25 -8 -38 -18 -39 -8 0 -23 -4 -33 -9 -9 -4
-23 -3 -30 2 -11 9 -26 9 -44 3 -5 -2 -29 -4 -55 -4 -34 -1 -49 3 -57 16 -7
11 -7 18 -2 18 6 0 8 24 6 56 -4 57 -25 94 -52 94 -7 0 -13 4 -13 9 0 5 -16
15 -36 21 -41 14 -39 22 8 24 36 2 50 28 27 50 -9 8 -10 8 -5 -1 12 -21 -19
-15 -39 7 -18 20 -67 25 -90 10 -5 -4 -21 -3 -35 1 -14 4 -21 7 -15 8 5 1 0 8
-13 16 -28 21 -58 6 -77 -38 -8 -18 -14 -25 -15 -17 0 11 -3 11 -12 2 -25 -25
-34 -12 -33 46 0 41 5 62 18 73 9 9 17 26 17 38 0 12 14 35 31 51 18 16 28 33
24 39 -9 15 74 91 100 91 11 1 34 7 50 15 17 8 39 11 50 8 11 -3 32 -6 48 -6z
m-189 -369 c-4 -7 -2 -8 5 -4 6 4 18 2 26 -4 8 -7 15 -9 15 -6 0 4 9 2 20 -4
32 -17 24 -25 -41 -39 -67 -13 -109 -30 -109 -42 0 -5 19 -2 41 6 53 19 52 19
65 -9 19 -40 -14 -74 -44 -44 -7 7 -8 17 -1 30 12 22 7 22 -29 4 -33 -17 -102
-19 -102 -2 0 6 12 22 25 35 14 13 25 30 25 38 0 13 2 13 17 2 15 -12 16 -12
10 4 -3 9 -3 17 2 17 15 0 51 37 43 45 -4 4 3 2 16 -4 12 -7 20 -17 16 -23z
m827 -23 c16 -9 29 -21 27 -28 -3 -16 28 -72 39 -71 4 1 18 -6 31 -16 22 -18
28 -44 16 -75 -5 -13 -8 -14 -15 -3 -7 10 -9 10 -9 1 0 -7 -4 -13 -10 -13 -5
0 -10 6 -10 14 0 8 -6 16 -12 18 -9 3 -8 9 5 22 19 19 22 36 7 36 -5 0 -10 -8
-11 -17 0 -17 -1 -17 -8 0 -4 10 -11 19 -16 19 -19 1 -45 25 -37 34 4 5 3 6
-2 1 -5 -4 -19 -1 -31 7 -12 8 -38 18 -59 21 -44 9 -49 36 -8 52 39 16 69 15
103 -2z m-801 -246 c0 -5 -4 -9 -10 -9 -5 0 -10 -9 -10 -20 0 -14 -7 -20 -22
-21 -22 -1 -22 -1 2 -9 24 -8 11 -15 -19 -11 -11 2 -11 0 0 -12 10 -11 16 -12
21 -3 4 6 8 7 8 2 0 -6 6 -1 14 10 14 18 15 16 22 -26 4 -25 9 -39 12 -32 2 6
11 12 20 12 15 0 15 -2 2 -10 -12 -8 -11 -10 8 -10 12 0 22 -6 22 -14 0 -8 6
-16 13 -19 7 -3 5 -8 -8 -13 -11 -4 -39 -27 -62 -51 -24 -24 -47 -43 -51 -43
-5 0 -17 -9 -27 -20 -25 -28 -56 -25 -92 8 -21 18 -32 38 -35 62 -2 23 -8 34
-17 32 -11 -2 -12 7 -7 45 9 61 49 103 98 103 18 0 40 5 48 10 11 7 11 10 2
10 -13 0 -13 31 1 41 11 8 67 -2 67 -12z m893 -5 c13 -4 15 -22 11 -97 -6
-137 -23 -215 -56 -251 l-27 -29 -41 18 c-22 10 -40 21 -40 25 0 4 -11 12 -25
18 -17 8 -25 20 -25 36 0 14 -4 27 -10 31 -5 3 -6 13 -3 22 4 9 -1 21 -11 29
-16 11 -16 13 6 20 24 8 33 10 59 12 9 1 20 9 23 18 3 8 2 12 -4 9 -6 -3 -7 1
-4 9 3 9 10 13 15 10 5 -3 9 4 9 16 0 12 13 28 33 40 17 11 26 20 18 20 -10 0
32 37 56 49 1 1 8 -2 16 -5z m-586 -200 c3 -8 11 -13 18 -10 7 2 12 -1 11 -7
0 -7 3 -13 9 -14 5 -1 13 -10 17 -20 6 -13 7 -11 5 10 -4 29 10 37 19 12 4 -8
10 -12 15 -9 19 11 8 -16 -16 -42 -20 -22 -25 -24 -25 -9 0 13 -3 15 -13 6 -8
-6 -17 -8 -21 -4 -4 4 -4 1 -1 -8 4 -12 -1 -15 -26 -13 -17 1 -35 8 -40 16 -5
8 -29 13 -66 13 -45 0 -58 3 -58 15 0 11 13 16 47 18 38 2 52 9 70 32 26 32
46 38 55 14z m-199 -39 c2 -23 -7 -30 -31 -26 -5 1 -7 -4 -5 -11 3 -7 13 -15
24 -17 10 -2 22 -8 26 -15 4 -6 11 -11 15 -12 4 0 15 -3 23 -7 8 -3 22 -7 30
-10 8 -2 -9 -5 -38 -5 -32 -1 -58 -7 -67 -16 -8 -8 -24 -18 -35 -21 -11 -3
-20 -11 -20 -16 0 -5 -6 -9 -13 -9 -15 0 -62 -47 -70 -70 -4 -12 -6 -11 -12 4
-9 20 5 51 23 51 6 0 14 4 19 9 5 5 3 6 -4 2 -7 -4 -13 -2 -13 4 0 6 -4 8 -10
5 -5 -3 -10 -2 -10 3 0 5 9 12 21 15 11 3 19 11 17 19 -1 7 0 14 4 16 4 1 19
14 33 28 14 14 30 22 35 19 6 -3 10 1 10 11 0 13 -3 14 -15 4 -11 -9 -15 -9
-15 -1 0 6 8 15 18 18 9 4 25 17 35 30 23 28 22 28 25 -2z m395 -307 c31 -6
57 -14 57 -18 0 -15 -133 -28 -252 -25 -133 4 -160 7 -198 23 -24 9 -23 10 20
20 62 13 303 14 373 0z m-521 -10 c-18 -18 -14 -31 7 -25 12 3 27 -3 37 -14 9
-10 14 -19 9 -19 -21 0 20 -29 48 -33 18 -3 42 -8 55 -12 16 -5 22 -3 22 7 0
17 40 38 71 38 13 0 19 -6 17 -17 -2 -13 3 -17 17 -16 11 1 23 -4 27 -10 4 -7
10 -3 16 13 9 24 9 24 34 -14 19 -28 27 -33 31 -22 4 9 3 15 -1 13 -9 -3 -12
7 -11 31 0 14 2 14 9 -3 8 -18 9 -18 9 -2 1 10 5 16 10 13 5 -4 11 -1 13 5 5
16 78 -7 78 -24 0 -7 3 -22 6 -33 6 -22 5 -22 -143 -19 -81 1 -163 6 -180 9
-20 4 -33 3 -33 -3 0 -14 29 -41 45 -41 24 0 26 -19 5 -40 l-20 -20 27 -11
c16 -6 86 -12 158 -13 124 -1 130 0 140 21 8 16 15 19 23 13 7 -6 10 -7 7 -4
-3 4 -1 12 4 18 16 21 21 64 8 69 -6 3 -2 6 11 6 12 1 22 6 22 12 0 6 7 8 17
5 10 -4 14 -4 10 0 -4 4 7 13 25 18 22 7 34 18 36 33 2 12 10 27 18 33 11 10
16 8 23 -11 6 -18 5 -26 -8 -31 -9 -4 -11 -7 -4 -7 13 -1 -54 -71 -68 -71 -9
0 -69 -119 -73 -144 -3 -21 -26 -46 -26 -28 0 9 -5 10 -18 3 -10 -6 -28 -8
-39 -5 -12 3 -31 0 -44 -7 -17 -9 -24 -9 -27 0 -2 6 -24 11 -50 11 -55 0 -94
-9 -87 -20 3 -4 -1 -10 -9 -13 -9 -4 -12 0 -10 11 6 22 -44 48 -52 27 -6 -15
-29 -14 -45 2 -6 6 -18 9 -27 6 -10 -4 -13 -2 -8 6 4 6 4 25 1 42 -5 22 -11
29 -22 24 -13 -4 -14 -3 -3 10 11 13 8 20 -16 44 -53 53 -95 118 -88 135 4 9
3 16 -2 15 -27 -5 -30 3 -11 26 12 13 26 25 32 25 5 0 4 -5 -3 -12z"/>
<path d="M1400 1543 c0 -7 6 -13 13 -13 9 0 9 -2 0 -8 -15 -10 -7 -67 36 -237
32 -127 83 -257 79 -200 -1 17 -6 35 -10 41 -5 6 -5 21 0 34 7 19 12 15 41
-42 18 -34 47 -87 64 -115 l31 -53 58 0 c31 0 60 -5 63 -10 5 -9 28 -8 100 5
11 2 27 4 35 5 8 1 2 6 -15 9 -16 4 -34 4 -39 0 -7 -7 -66 70 -66 87 0 2 -22
37 -48 78 -46 69 -142 257 -142 278 0 5 -4 7 -10 3 -6 -3 -6 -15 0 -29 21 -56
84 -181 112 -222 35 -53 108 -183 108 -195 0 -4 -7 -6 -16 -5 -15 2 -74 80
-74 98 0 5 -23 43 -51 85 -71 105 -169 324 -169 379 0 9 -5 12 -12 8 -7 -5 -9
-2 -5 9 4 11 1 15 -14 12 -10 -2 -24 -7 -29 -10 -5 -3 -7 0 -4 9 4 10 0 14
-15 13 -12 -1 -21 -7 -21 -14z"/>
<path d="M2864 1285 c-3 -8 -3 -19 1 -25 3 -5 2 -10 -2 -10 -5 0 -14 -13 -20
-30 -8 -23 -8 -30 0 -30 9 0 9 -2 0 -8 -6 -4 -28 -45 -48 -92 -20 -46 -50
-110 -67 -142 -17 -32 -29 -60 -26 -63 2 -2 29 -7 60 -11 l56 -7 26 40 c25 37
126 330 126 364 0 12 -7 15 -27 11 -25 -5 -25 -6 -8 -13 17 -6 17 -8 3 -8 -11
-1 -15 -6 -12 -15 8 -21 -14 -56 -35 -56 -26 0 -32 10 -20 33 9 16 13 17 20 6
5 -8 3 -16 -4 -21 -8 -5 -6 -8 6 -8 21 0 23 23 3 39 -8 7 -13 23 -11 36 2 27
-12 34 -21 10z"/>
<path d="M953 672 c-12 -7 -18 -49 -49 -312 -13 -114 -13 -152 -3 -247 l12
-113 50 0 49 0 -7 188 c-4 103 -11 209 -16 236 -5 27 -10 83 -10 125 -2 94
-10 133 -26 123z"/>
<path d="M3394 533 c-12 -20 -20 -60 -26 -136 -6 -73 -18 -137 -37 -195 -15
-48 -31 -113 -35 -145 l-6 -57 29 0 c34 0 37 8 47 90 6 59 24 94 24 49 0 -44
18 -4 34 77 9 45 16 86 16 92 0 23 -20 12 -26 -14 -4 -17 -9 -22 -14 -14 -4 7
-4 27 1 44 5 17 9 62 9 101 0 39 4 85 9 103 12 39 0 42 -25 5z"/>
</g>
</svg>
